@startuml empleados-dc
    title "Empleados: diagrama de clases"
    hide circle
    hide empty members
    class Departamento {
        nombre: String
        localidad: String
    }
    class Empleado {
        nombre: String
        fechaInicio: Date
        fechaFin: Date
        salario: Double
        comisión: Double
    }
    'Asociaciones
    Empleado "1" -- "0..*" Departamento: trabajaEn >
    Empleado "Jefe 0..1" -- "Subordinado *" Empleado: tieneJefe >
    'Agregamos notas al modelo
    Note left of Departamento
        - La combinación nombre y localidad no se puede repetir
        - Un departamento no puede tener más de 5 empleados
    End Note
    Note left of Empleado
        - Un empleado no puede ser su propio jefe
        - La comisión es un porcentaje del salario entre 0 y 100
        - Los nombres de los empleados son únicos
        - La fecha de inicio del contrato no puede ser posterior a la fecha de fin
    End Note
@enduml
